<?xml version="1.0" encoding="UTF-8"?>
<svg id="_图层_2" data-name="图层 2" xmlns="http://www.w3.org/2000/svg" viewBox="0 0 309.35 308.42">
  <defs>
    <style>
      .cls-1 {
        fill: none;
        fill-rule: evenodd;
      }
    </style>
  </defs>
  <g id="_图层_1-2" data-name="图层 1">
    <path class="cls-1" d="M152.28.02c22.05-.41,39.81,4.29,55.44,10.8,10.12,4.22,19.61,7.3,28.32,12.72,6.26,3.9,11.88,8.86,17.52,13.44,1.68,1.84,3.36,3.68,5.04,5.52,23.85,17.41,39.98,54.93,48.96,87.84.08,2.32.16,4.64.24,6.96,3.28,17.49.94,40.39-3.36,54.48-3.17,10.39-5.61,19.28-9.6,28.32-11.2,25.4-39.63,52.89-62.64,66.72-7.9,4.75-17.13,7.89-25.92,11.52-15.18,6.27-31.7,10.08-53.76,10.08h-13.44c-46.28-10.28-78.83-23.55-102.48-56.4-2-2.72-4-5.44-6-8.16-.87-1.46-1.16-4.52-1.92-5.52-.64-.84-2.61-1.3-3.36-2.16-1.41-1.63-2.79-4.5-3.84-6.24-.63-1.05-4.4-8.4-3.84-8.88C.05,198.39-5.52,143.72,6.12,111.14c5.66-15.84,12.03-30.58,20.64-43.44C45.28,40.03,79.27,20.65,112.92,7.7c8.32-3.2,18.16-4.61,27.6-6.48,3.92-.4,7.84-.8,11.76-1.2Z"/>
    <path class="cls-1" d="M164.04,8.9c-8.56,5.36-5.03,14.56-11.04,18.96-2.8,2.05-9.32,2.44-11.28-.72-1.97-3.18,1.1-6.71,4.56-5.52l.72.48v1.44c-.72.16-1.44.32-2.16.48.21,1.31.42,1.46,1.44,1.92,8.43,2.43,10.9-16.47-.24-16.08-.61,1.47-1.41,1.43-1.68,3.36.46.36.42.43.72.96.88-.24,1.76-.48,2.64-.72l.96.96c-.31,4.66-4.35,2.39-7.92,3.6-3.9,1.32-4.67,4.17-5.52,8.64-2.4-.72-4.8-1.44-7.2-2.16-15.49-3.68-42.46,9.85-47.76,17.04-.82,1.12-.16,2.41-.96,3.84-.96.56-1.92,1.12-2.88,1.68-1.69,2.19-3.46,7.44-2.88,10.8,1.5-.55,1.33-1.75,2.4-2.64l.72-.24c.49.84.1.64,1.2.96,4.05-2.7,12.02-4.92,14.16-9.36.64-2.16,1.28-4.32,1.92-6.48,2.66-4.48,9.55-7.17,14.88-8.88,6.17-1.97,18.51-1.16,22.56,1.68.96,1.44,1.92,2.88,2.88,4.32,2.98,4.06,12.32,6.31,19.2,4.08,6-1.95,7.46-6.68,11.52-10.32,7.1,3.02,19.03,1.89,27.12-.48,2.22-.65,6.72-2.76,9.84-1.92,5.22,1.41,8.1,7.16,12,10.08,3.44,2.56,6.88,5.12,10.32,7.68,2.91,1.87,7.68,3.71,9.12,6.96,2.27,5.11-1.42,8.05,1.92,12.72,2.47,3.46,10.92,4.74,12.48-.48-5.94.29-10.39-1.17-10.32-7.44l.24-.48h.24c2.3,3.34,4.76,5.83,10.32,4.56,1.48-1.16,3.17-2.59,3.36-5.04-6.11,1.16-9.32,5.23-12.72-2.64.16-2.64,1.06-4.06,2.88-5.04.8.16,1.6.32,2.4.48l.24,1.44c-1.41.58-2.5.66-2.16,2.4.03.85.35,1.33.96,2.16,5.84.39,6.91-7.63,2.64-10.08-4.47-2.57-6.87,2.12-11.04,2.4-7.8-4.01-15.45-10.82-21.84-16.56-2.88-2.59-5.59-8.26-9.12-9.84-.72-.08-1.44-.16-2.16-.24-1.12,1.04-2.24,2.08-3.36,3.12-5.28.02-8.96-1.81-13.2-2.88-6.48-1.64-13.02-1.31-19.68-.72l-.24-.24c-.19-8.79,4.89-7.17,10.56-9.36l-.48-.72c-3.17-1.32-6.28-1.95-11.28-1.92Z"/>
    <path class="cls-1" d="M166.92,53.54c-.26.9-.42.29,0,1.2,11.23,3.39,25.28,24,30.72,34.32,1.12,2.12,5.28,15.4,2.88,16.56-.35-7.36-10.73-19.02-15.12-23.28-16.74-16.23-38.74-29.27-71.28-21.6l-.24,1.2h.48c1.68.08,3.36.16,5.04.24,4.8.88,9.6,1.76,14.4,2.64,6.52,2.36,13.78,4.29,19.44,7.68,4.14,2.48,7.35,6.27,11.04,9.12,3.09,2.39,8.25,7.29,8.64,12-7.24-5.46-13.63-11.41-22.8-15.12-3.12-.64-6.24-1.28-9.36-1.92-20.33-4.4-41.04-.55-54.72,7.92-4.12,2.55-14.29,7.84-15.6,12.48l.48.24c14-4.35,31.86-17.04,52.56-10.8,3.55,1.07,6.83,1.58,8.88,4.08l-.24.48c-37.09-2.35-60.9,18.5-75.12,42.24-2.56,4.27-12.91,26.78-8.64,32.64,2.56-5.84,5.12-11.68,7.68-17.52,7.1-11.18,12.9-20.26,23.28-28.08,3.06-2.3,12.3-9.36,17.28-8.16l.24,1.44c-3.63,5.6-10.44,8.38-14.4,13.68-11.52,15.42-24.91,39.02-18.96,65.52,1.38,6.16,4.4,23.1,8.88,24.72l.24-.72c-7.45-27.36-.39-57.01,15.12-71.76l.48.48c-8.22,16.17-10.88,46.99-3.12,66.48,3.84,9.64,9.45,17.7,15.36,25.2,4.4,5.58,10.71,13.45,18.48,15.36v-.96c-12.14-10.38-27.51-42.64-22.32-67.92l.72-.24c.12,6.43,2.63,12.7,4.32,18,7.56,23.78,20.2,39.39,41.76,49.2,3.69,1.68,27.97,10.64,32.4,5.76l-.48-.72c-23.55-2.78-41.79-22.02-52.32-38.4l.24-.24c18.68,13.62,43.56,35.17,77.76,24.72,5.95-1.82,13.66-3.06,17.04-7.44l-.48-.48c-17.46,6.03-54.87,2.43-61.2-11.52l.24-.24c31.4,14.09,79.13.76,90.96-22.32l-.24-.48h-.96c-9.04,8.45-42.62,22.65-59.04,12.48l.24-.48c11.23-.3,21.64-3.71,29.52-7.68,25.3-12.73,32.98-23.95,43.2-51.6l-.72-.72h-.24c-6.44,14.11-16.05,25.4-30,32.16-3.11,1.51-7.32,5.25-12,4.08v-.24c15.31-12.86,22.46-19.77,29.76-41.04,1.68-4.9,4.36-12.49,3.36-18.72-1.43-8.89-1.02-23.93-6-28.32l-.48.24c.11,4.84,2,10.32.72,15.6-3.54,14.58-4.96,27.99-13.44,38.4-2.36,2.9-5.06,8.4-8.64,9.84v-.24c3.22-10.37,7.24-19.08,9.84-30.72.16-4.08.32-8.16.48-12.24-.16-4.16-.32-8.32-.48-12.48-4.12-16.29-10.1-30.45-21.36-39.36l-.96.24v.24c1.5,5.59,5.2,11.14,7.2,16.32,6.21,16.12,6.34,34.7.96,50.4h-.48c.49-33.7-9.21-56.9-29.04-70.8-5.98-4.19-12.87-10.06-21.84-11.04Z"/>
    <path class="cls-1" d="M58.44,59.78c.43,4.02,2.81,14.28-4.56,12-1.6-.25-2.9-1.01-3.6-2.16-.59-.81-.73-1.62-.72-3.12.7-1.04,1.23-1.54,2.88-1.68l.96.72c-.26,1.25-.73,1.62.24,2.4.89.37,1.47.11,2.16-.24.56-2.65.02-3.94-1.92-5.28-10.56-.55-10.32,11.44-2.4,12.48v.96c-1.96.91-2.73,3.06-4.32,4.32-5.68,4.49-11.3,13.85-16.8,17.28-1.58.99-3.49.91-4.8,1.92-.69,3.58,2.12,4.16,1.2,8.4-1.92,5.52-3.84,11.04-5.76,16.56-1.19,3.69-.04,9.62-1.2,12.48-7.11-.35-5.22-5.31-8.4-9.36l-1.2.72c-5.48,18.49,11.08,13.84,14.4,24.96,1.99,6.65-2.06,12.94-7.68,10.32-.36-1.68-.61-2.33-.48-4.32h.96c.61.92.77,1.43,2.16,1.68.62-.34.8-.39,1.2-.96,4.64-7.07-7.01-14.69-12.96-11.04-.76,2.14-1.03,3.9-.24,6.24.64.24,1.28.48,1.92.72v-2.64l.96-.48c3.37,1.24.83,4.51,1.68,8.16,1.18,5.04,4,7.72,10.08,6.96v1.2c-1.45,2.61-1.19,5.88-1.92,9.36-3.96,18.82,6.48,44.14,16.8,51.6,1.12.4,2.24.8,3.36,1.2.72,1.04,1.44,2.08,2.16,3.12,2.2,1.8,8.14,4.15,12,3.12v-.96c-4.53-1.92-9.89-2.84-12.24-6.96l.24-.24c2.81,2.13,5.26,4.32,9.36,5.28.31-.79.22-.29.24-1.2-4.01-4.56-5.95-11.13-9.84-15.84-2.36-2.86-6.97-2.93-9.84-5.28-4.5-3.69-6.54-13.28-7.92-19.2-1.32-5.65.3-15.69,2.64-18.48,2.73-3.26,6.31-4.42,8.4-8.64,4.57-9.25-1.33-22.2-6.72-25.68.4-3.81,2.62-7.39,3.36-11.76-.24-6.48-.48-12.96-.72-19.44-.16-2.08-.32-4.16-.48-6.24,1.06-3.57,5.18-4.78,7.44-7.2,4.69-5.03,10.66-14.81,16.56-18,4.21-2.28,8.45,1.28,12.72-1.92,3.3-2.47,4.73-8.97.96-12h-.96l-.48.72c1.48,4.61-3.56,12.28-7.2,8.64,6.18-2.1,3.6-10.41.24-13.2h-1.92Z"/>
    <path class="cls-1" d="M253.32,74.42c0,.86-.22.5.24,1.2,4.03,1.24,6.8,4.31,11.04,5.76l-.48.72h-.24c-2.73-.67-6.12-1.98-7.2-4.32l-.96.48c1.84,2.4,3.68,4.8,5.52,7.2,1.56,2.64,2.75,6.25,5.04,8.16,2.2,1.84,5,2.62,7.44,4.32,4.98,3.47,8.08,9.93,9.6,16.8,1.3,5.87,2.03,16.38-.96,21.36-2.75,4.59-9.11,6.98-11.04,12.48-3.03,8.63,3.26,18.1,7.92,21.12-2.59,5.22-5.3,12.46-3.84,21.12.79,4.73,3.89,13.38,1.68,18-5.04,5.2-10.08,10.4-15.12,15.6-2.63,3.42-5.04,8.94-8.64,11.28-4.38,2.85-11.3-2.22-15.12,3.6-2.78,4.24-.05,9.68,2.88,11.28h.72c.27-5.1-1.47-10.49,5.28-11.04-3.4,4.22-3.05,8.52,1.44,11.52l1.2-.24c-.48-1.84-.96-3.68-1.44-5.52,1.06-2.64,2.59-4.43,6.48-4.32,1.12.61,2.07.96,2.64,2.16.78,1.55-.08,2.48-.96,3.6-.64.08-1.28.16-1.92.24v-.48c-.23-1.26.67-1.68.24-2.88-.88.08-1.76.16-2.64.24l-.24.72v3.12c1.95,4.7,8.27.96,9.36-1.92,1.11-4.01-2.16-5.54-2.88-8.4,3.28-4.24,6.56-8.48,9.84-12.72,3.04-2.88,6.08-5.76,9.12-8.64,1.36-1.84,2.72-3.68,4.08-5.52,1.75-1.01,2.35-.62,3.6-1.92-.23-3.05-2.47-4.03-1.68-7.92,1.11-5.48,3.17-10.75,4.32-17.04-.08-3.52-.16-7.04-.24-10.56h.24c6.76,1.13,8.01,4.36,9.6,10.8h.24l.72-.72c7.48-16.55-8.14-15.18-12.96-22.08-4.15-5.94-2.66-10.56,2.16-14.16,2.21.31,5.75,2.28,4.56,5.04l-.96,1.2c-.64-.32-1.28-.64-1.92-.96-.04-1.44.3-.99-.72-1.68l-.96.24c-8.55,8.03,16.94,16.99,14.16,3.84l-1.92-1.92c-.97.1-.94.08-1.44.48.39.92.46,1.51.24,2.64-5.39,1.24-1.65-6.71-3.12-9.6-1.62-3.18-5.12-3.89-8.88-5.04v-.24c1.58-4.86,4.34-12.71,3.12-19.44-3.69-20.31-12.68-47.27-36.24-47.04Z"/>
    <path class="cls-1" d="M156.12,221.54l.24.48-.24-.48Z"/>
    <path class="cls-1" d="M135.24,287.3c.02,2.48-.61,3.78-1.2,5.52-1.18.4-9.43,1.77-10.08,2.4l.48.48c1.09,2.08,3.49,2.41,6,3.12,13.01,3.7,12.8-11.03,20.4-15.12,4.95-2.66,11.04-.28,11.76,4.56-.74,1.93-2.18,3.16-4.56,1.92v-.96c1.05-.07,1.11-.14,1.68-.48-.04-1.53-.61-2.06-1.68-3.12-8.57-.3-13.5,8.27-9.12,14.88,4.02,1.26,7.28,1.1,9.84-1.44.02-1.27-.13-1.93-.48-2.64-1.14.53-2.17.76-3.6.48-.16-.64-.32-1.28-.48-1.92l.72-.48c2.64-.08,5.28-.16,7.92-.24,3.76-1.27,4.35-5.48,3.36-9.6h.24c19.34,8.39,42.16,2.22,56.16-6.72,2.16-1.52,4.32-3.04,6.48-4.56,1.03-1.31.66-3,1.68-4.56.77-1.18,2.81-1.77,3.6-3.12.8-2.8,1.6-5.6,2.4-8.4l-.48-.48c-2.43,1.6-5.51,7.73-9.84,6.24,2.16-.45,4.71-1.71,6-3.12-.37-1.01.04-.59-.96-.96-3.89,2.29-10.21,3.73-13.68,6.72-2.98,2.57-3.9,6.86-6.48,9.84-4.06,4.69-11.35,5.76-18.48,7.44-6.54,1.54-16.69-.67-20.16-3.12-1.84-2.16-3.68-4.32-5.52-6.48-5.11-3.87-15.19-5.23-21.84-1.68-2.4,2.16-4.8,4.32-7.2,6.48-4.6-1.67-11.13-3.28-17.76-2.16-4.77.81-13.17,3.25-17.76,1.2-4.32-3.76-8.64-7.52-12.96-11.28-4.37-2.95-11.55-7.19-14.16-11.76-1.45-2.54.97-6.07,0-9.6-.88-1.6-1.76-3.2-2.64-4.8-2.48-3.27-8.12-2.13-10.08.96l.48.72c5.12-.07,7.96,3.15,7.92,8.16h-.24c-3.43-4.44-10-7.45-12.96,0v.96l.72.48c6.66-3.61,13.54,4.25,8.64,7.92-1.41,2.12-4.16.84-5.52-.24l.24-1.2.48-.72h1.2c.47,1.06.32,1.19,1.68,1.44l.96-.72.24-1.44c-.4-.8-.8-1.6-1.2-2.4-.99-.31-2.64-.78-3.84-.24-1.81.64-2.79,1.73-3.6,3.36,2.46,9.65,9.77,8.58,13.92,1.44l1.2,1.2c7.52,5.92,15.04,11.84,22.56,17.76,2.49,2,2.33,6.1,5.04,7.44,3.76.89,4.35-2.77,8.88-1.92,8.36,1.56,14.55,4.52,25.68,4.56Z"/>
  </g>
</svg>