<?xml version="1.0" encoding="UTF-8"?>
<svg id="_图层_1" data-name="图层_1" xmlns="http://www.w3.org/2000/svg" version="1.1" viewBox="0 0 453.6 340.1">
  <!-- Generator: Adobe Illustrator 29.0.1, SVG Export Plug-In . SVG Version: 2.1.0 Build 192)  -->
  <defs>
    <style>
      .st0 {
        fill: #fff;
        fill-rule: evenodd;
      }
    </style>
  </defs>
  <path class="st0" d="M379.9,151.2c0-2.3-.2-4.6-.2-7-9-32.9-25.1-70.4-49-87.8-1.7-1.8-3.4-3.7-5-5.5-5.6-4.6-11.3-9.5-17.5-13.4-8.7-5.4-18.2-8.5-28.3-12.7-15.6-6.5-33.4-11.2-55.4-10.8-3.9.4-7.8.8-11.8,1.2-9.4,1.9-19.3,3.3-27.6,6.5-33.7,12.9-67.6,32.3-86.2,60-8.6,12.9-15,27.6-20.6,43.4-11.6,32.6-6.1,87.2,11.5,109.9-.6.5,3.2,7.8,3.8,8.9,1.1,1.7,2.4,4.6,3.8,6.2.7.9,2.7,1.3,3.4,2.2.8,1,1,4.1,1.9,5.5,2,2.7,4,5.4,6,8.2,23.6,32.9,56.2,46.1,102.5,56.4h13.4c22.1,0,38.6-3.8,53.8-10.1,8.8-3.6,18-6.8,25.9-11.5,23-13.8,51.4-41.3,62.6-66.7,4-9,6.4-17.9,9.6-28.3,4.3-14.1,6.6-37,3.4-54.5ZM148.6,61c1-.6,1.9-1.1,2.9-1.7.8-1.4.1-2.7,1-3.8,5.3-7.2,32.3-20.7,47.8-17,2.4.7,4.8,1.4,7.2,2.2.8-4.5,1.6-7.3,5.5-8.6,3.6-1.2,7.6,1.1,7.9-3.6-.3-.3-.6-.6-1-1-.9.2-1.8.5-2.6.7-.3-.5-.3-.6-.7-1,.3-1.9,1.1-1.9,1.7-3.4,11.1-.4,8.7,18.5.2,16.1-1-.5-1.2-.6-1.4-1.9.7-.2,1.4-.3,2.2-.5v-1.4c-.2-.2-.5-.3-.7-.5-3.5-1.2-6.5,2.3-4.6,5.5,2,3.2,8.5,2.8,11.3.7,6-4.4,2.5-13.6,11-19,5,0,8.1.6,11.3,1.9.2.2.3.5.5.7-5.7,2.2-10.8.6-10.6,9.4l.2.2c6.7-.6,13.2-.9,19.7.7,4.2,1.1,7.9,2.9,13.2,2.9,1.1-1,2.2-2.1,3.4-3.1.7,0,1.4.2,2.2.2,3.5,1.6,6.2,7.3,9.1,9.8,6.4,5.7,14,12.5,21.8,16.6,4.2-.3,6.6-5,11-2.4,4.3,2.5,3.2,10.5-2.6,10.1-.6-.8-.9-1.3-1-2.2-.3-1.7.8-1.8,2.2-2.4,0-.5-.2-1-.2-1.4-.8-.2-1.6-.3-2.4-.5-1.8,1-2.7,2.4-2.9,5,3.4,7.9,6.6,3.8,12.7,2.6-.2,2.5-1.9,3.9-3.4,5-5.6,1.3-8-1.2-10.3-4.6h-.2c0,.2-.2.3-.2.5,0,6.3,4.4,7.7,10.3,7.4-1.6,5.2-10,3.9-12.5.5-3.3-4.7.3-7.6-1.9-12.7-1.4-3.2-6.2-5.1-9.1-7-3.4-2.6-6.9-5.1-10.3-7.7-3.9-2.9-6.8-8.7-12-10.1-3.1-.8-7.6,1.3-9.8,1.9-8.1,2.4-20,3.5-27.1.5-4.1,3.6-5.5,8.4-11.5,10.3-6.9,2.2-16.2,0-19.2-4.1-1-1.4-1.9-2.9-2.9-4.3-4.1-2.8-16.4-3.7-22.6-1.7-5.3,1.7-12.2,4.4-14.9,8.9-.6,2.2-1.3,4.3-1.9,6.5-2.1,4.4-10.1,6.7-14.2,9.4-1.1-.3-.7-.1-1.2-1-.2,0-.5.2-.7.2-1.1.9-.9,2.1-2.4,2.6-.6-3.4,1.2-8.6,2.9-10.8ZM126.7,251.3c-3.9,1-9.8-1.3-12-3.1-.7-1-1.4-2.1-2.2-3.1-1.1-.4-2.2-.8-3.4-1.2-10.3-7.5-20.8-32.8-16.8-51.6.7-3.5.5-6.8,1.9-9.4v-1.2c-6.1.8-8.9-1.9-10.1-7-.8-3.6,1.7-6.9-1.7-8.2-.3.2-.6.3-1,.5v2.6c-.6-.2-1.3-.5-1.9-.7-.8-2.3-.5-4.1.2-6.2,6-3.7,17.6,4,13,11-.4.6-.6.6-1.2,1-1.4-.2-1.6-.8-2.2-1.7h-1c-.1,2,.1,2.6.5,4.3,5.6,2.6,9.7-3.7,7.7-10.3-3.3-11.1-19.9-6.5-14.4-25,.4-.2.8-.5,1.2-.7,3.2,4.1,1.3,9,8.4,9.4,1.2-2.9,0-8.8,1.2-12.5,1.9-5.5,3.8-11,5.8-16.6.9-4.2-1.9-4.8-1.2-8.4,1.3-1,3.2-.9,4.8-1.9,5.5-3.4,11.1-12.8,16.8-17.3,1.6-1.3,2.4-3.4,4.3-4.3v-1c-7.9-1-8.2-13,2.4-12.5,1.9,1.3,2.5,2.6,1.9,5.3-.7.4-1.3.6-2.2.2-1-.8-.5-1.1-.2-2.4l-1-.7c-1.7.1-2.2.6-2.9,1.7,0,1.5.1,2.3.7,3.1.7,1.2,2,1.9,3.6,2.2,7.4,2.3,5-8,4.6-12h1.9c3.4,2.8,5.9,11.1-.2,13.2,3.6,3.6,8.7-4,7.2-8.6.2-.2.3-.5.5-.7h1c3.8,3,2.3,9.5-1,12-4.3,3.2-8.5-.4-12.7,1.9-5.9,3.2-11.9,13-16.6,18-2.3,2.4-6.4,3.6-7.4,7.2.2,2.1.3,4.2.5,6.2.2,6.5.5,13,.7,19.4-.7,4.4-3,7.9-3.4,11.8,5.4,3.5,11.3,16.4,6.7,25.7-2.1,4.2-5.7,5.4-8.4,8.6-2.3,2.8-4,12.8-2.6,18.5,1.4,5.9,3.4,15.5,7.9,19.2,2.9,2.4,7.5,2.4,9.8,5.3,3.9,4.7,5.8,11.3,9.8,15.8,0,.9,0,.4-.2,1.2-4.1-1-6.5-3.2-9.4-5.3,0,0-.2.2-.2.2,2.3,4.1,7.7,5,12.2,7v1ZM120.5,179.8c-4.3-5.9,6.1-28.4,8.6-32.6,14.2-23.7,38-44.6,75.1-42.2,0-.2.2-.3.2-.5-2.1-2.5-5.3-3-8.9-4.1-20.7-6.2-38.6,6.5-52.6,10.8-.2,0-.3-.2-.5-.2,1.3-4.6,11.5-9.9,15.6-12.5,13.7-8.5,34.4-12.3,54.7-7.9,3.1.6,6.2,1.3,9.4,1.9,9.2,3.7,15.6,9.7,22.8,15.1-.4-4.7-5.6-9.6-8.6-12-3.7-2.9-6.9-6.6-11-9.1-5.7-3.4-12.9-5.3-19.4-7.7-4.8-.9-9.6-1.8-14.4-2.6-1.7,0-3.4-.2-5-.2h-.5c0-.4.2-.8.2-1.2,32.5-7.7,54.5,5.4,71.3,21.6,4.4,4.3,14.8,15.9,15.1,23.3,2.4-1.2-1.8-14.4-2.9-16.6-5.4-10.3-19.5-30.9-30.7-34.3-.4-.9-.3-.3,0-1.2,9,1,15.9,6.8,21.8,11,19.8,13.9,29.5,37.1,29,70.8h.5c5.4-15.7,5.3-34.3-1-50.4-2-5.2-5.7-10.7-7.2-16.3v-.2c.3,0,.6-.2,1-.2,11.3,8.9,17.2,23.1,21.4,39.4.2,4.2.3,8.3.5,12.5-.2,4.1-.3,8.2-.5,12.2-2.6,11.6-6.6,20.3-9.8,30.7v.2c3.6-1.4,6.3-6.9,8.6-9.8,8.5-10.4,9.9-23.8,13.4-38.4,1.3-5.3-.6-10.8-.7-15.6.2,0,.3-.2.5-.2,5,4.4,4.6,19.4,6,28.3,1,6.2-1.7,13.8-3.4,18.7-7.3,21.3-14.5,28.2-29.8,41v.2c4.7,1.2,8.9-2.6,12-4.1,13.9-6.8,23.6-18.1,30-32.2h.2l.7.7c-10.2,27.7-17.9,38.9-43.2,51.6-7.9,4-18.3,7.4-29.5,7.7,0,.2-.2.3-.2.5,16.4,10.2,50-4,59-12.5h1c0,.2.2.3.2.5-11.8,23.1-59.6,36.4-91,22.3,0,0-.2.2-.2.2,6.3,13.9,43.7,17.5,61.2,11.5l.5.5c-3.4,4.4-11.1,5.6-17,7.4-34.2,10.5-59.1-11.1-77.8-24.7,0,0-.2.2-.2.2,10.5,16.4,28.8,35.6,52.3,38.4.2.2.3.5.5.7-4.4,4.9-28.7-4.1-32.4-5.8-21.6-9.8-34.2-25.4-41.8-49.2-1.7-5.3-4.2-11.6-4.3-18-.2,0-.5.2-.7.2-5.2,25.3,10.2,57.5,22.3,67.9v1c-7.8-1.9-14.1-9.8-18.5-15.4-5.9-7.5-11.5-15.6-15.4-25.2-7.8-19.5-5.1-50.3,3.1-66.5-.2-.2-.3-.3-.5-.5-15.5,14.8-22.6,44.4-15.1,71.8,0,.2-.2.5-.2.7-4.5-1.6-7.5-18.6-8.9-24.7-5.9-26.5,7.4-50.1,19-65.5,4-5.3,10.8-8.1,14.4-13.7,0-.5-.2-1-.2-1.4-5-1.2-14.2,5.9-17.3,8.2-10.4,7.8-16.2,16.9-23.3,28.1-2.6,5.8-5.1,11.7-7.7,17.5ZM306.5,279.6c-.8,1.4-2.8,1.9-3.6,3.1-1,1.6-.7,3.2-1.7,4.6-2.2,1.5-4.3,3-6.5,4.6-14,8.9-36.8,15.1-56.2,6.7h-.2c1,4.1.4,8.3-3.4,9.6-2.6,0-5.3.2-7.9.2-.2.2-.5.3-.7.5.2.6.3,1.3.5,1.9,1.4.3,2.5,0,3.6-.5.4.7.5,1.4.5,2.6-2.6,2.5-5.8,2.7-9.8,1.4-4.4-6.6.6-15.2,9.1-14.9,1.1,1.1,1.6,1.6,1.7,3.1-.6.3-.6.4-1.7.5v1c2.4,1.2,3.8,0,4.6-1.9-.7-4.8-6.8-7.2-11.8-4.6-7.6,4.1-7.4,18.8-20.4,15.1-2.5-.7-4.9-1-6-3.1-.2-.2-.3-.3-.5-.5.7-.6,8.9-2,10.1-2.4.6-1.7,1.2-3,1.2-5.5-11.1,0-17.3-3-25.7-4.6-4.5-.8-5.1,2.8-8.9,1.9-2.7-1.3-2.5-5.4-5-7.4-7.5-5.9-15-11.8-22.6-17.8-.4-.4-.8-.8-1.2-1.2-4.2,7.1-11.5,8.2-13.9-1.4.8-1.6,1.8-2.7,3.6-3.4,1.2-.5,2.8,0,3.8.2.4.8.8,1.6,1.2,2.4,0,.5-.2,1-.2,1.4-.3.2-.6.5-1,.7-1.4-.3-1.2-.4-1.7-1.4h-1.2c-.2.2-.3.5-.5.7,0,.4-.2.8-.2,1.2,1.4,1.1,4.1,2.4,5.5.2,4.9-3.7-2-11.5-8.6-7.9-.2-.2-.5-.3-.7-.5v-1c3-7.5,9.5-4.4,13,0h.2c0-5-2.8-8.2-7.9-8.2-.2-.2-.3-.5-.5-.7,2-3.1,7.6-4.2,10.1-1,.9,1.6,1.8,3.2,2.6,4.8,1,3.5-1.5,7.1,0,9.6,2.6,4.6,9.8,8.8,14.2,11.8,4.3,3.8,8.6,7.5,13,11.3,4.6,2,13-.4,17.8-1.2,6.6-1.1,13.2.5,17.8,2.2,2.4-2.2,4.8-4.3,7.2-6.5,6.7-3.6,16.7-2.2,21.8,1.7,1.8,2.2,3.7,4.3,5.5,6.5,3.5,2.4,13.6,4.7,20.2,3.1,7.1-1.7,14.4-2.7,18.5-7.4,2.6-3,3.5-7.3,6.5-9.8,3.5-3,9.8-4.4,13.7-6.7,1,.4.6,0,1,1-1.3,1.4-3.8,2.7-6,3.1,4.3,1.5,7.4-4.6,9.8-6.2l.5.5c-.8,2.8-1.6,5.6-2.4,8.4ZM359.5,164.6c.3,0,.6-.2,1-.2,1,.7.7.2.7,1.7.6.3,1.3.6,1.9,1,.3-.4.6-.8,1-1.2,1.2-2.8-2.4-4.7-4.6-5-4.8,3.6-6.3,8.2-2.2,14.2,4.8,6.9,20.4,5.5,13,22.1l-.7.7h-.2c-1.6-6.4-2.8-9.7-9.6-10.8h-.2c0,3.5.2,7,.2,10.6-1.2,6.3-3.2,11.6-4.3,17-.8,3.9,1.5,4.9,1.7,7.9-1.3,1.3-1.8.9-3.6,1.9-1.4,1.8-2.7,3.7-4.1,5.5-3,2.9-6.1,5.8-9.1,8.6-3.3,4.2-6.6,8.5-9.8,12.7.7,2.9,4,4.4,2.9,8.4-1.1,2.9-7.4,6.6-9.4,1.9v-3.1c0-.2.2-.5.2-.7.9,0,1.8-.2,2.6-.2.4,1.2-.5,1.6-.2,2.9v.5c.6,0,1.3-.2,1.9-.2.9-1.1,1.7-2,1-3.6-.6-1.2-1.5-1.6-2.6-2.2-3.9-.1-5.4,1.7-6.5,4.3.5,1.8,1,3.7,1.4,5.5-.4,0-.8.2-1.2.2-4.5-3-4.8-7.3-1.4-11.5-6.7.6-5,5.9-5.3,11h-.7c-2.9-1.6-5.7-7-2.9-11.3,3.8-5.8,10.7-.7,15.1-3.6,3.6-2.3,6-7.9,8.6-11.3,5-5.2,10.1-10.4,15.1-15.6,2.2-4.6-.9-13.3-1.7-18-1.5-8.7,1.3-15.9,3.8-21.1-4.7-3-10.9-12.5-7.9-21.1,1.9-5.5,8.3-7.9,11-12.5,3-5,2.3-15.5,1-21.4-1.5-6.9-4.6-13.3-9.6-16.8-2.4-1.7-5.2-2.5-7.4-4.3-2.3-1.9-3.5-5.5-5-8.2-1.8-2.4-3.7-4.8-5.5-7.2.3-.2.6-.3,1-.5,1.1,2.3,4.5,3.6,7.2,4.3h.2c.2-.2.3-.5.5-.7-4.2-1.5-7-4.5-11-5.8-.5-.7-.2-.3-.2-1.2,23.6-.2,32.5,26.7,36.2,47,1.2,6.7-1.5,14.6-3.1,19.4v.2c3.8,1.1,7.3,1.9,8.9,5,1.5,2.9-2.3,10.8,3.1,9.6.2-1.1.2-1.7-.2-2.6.5-.4.5-.4,1.4-.5.6.6,1.3,1.3,1.9,1.9,2.8,13.1-22.7,4.2-14.2-3.8Z"/>
</svg>